<?xml version="1.0" encoding="UTF-8" standalone="no"?>
<!-- Created with Inkscape (http://www.inkscape.org/) -->

<svg
   width="32"
   height="32"
   viewBox="0 0 32 32"
   version="1.1"
   id="svg1"
   xmlns="http://www.w3.org/2000/svg"
   xmlns:svg="http://www.w3.org/2000/svg">
  <defs
     id="defs1" />
  <g
     id="layer3">
    <path
       style="fill:#00AAFF;fill-opacity:1"
       d="m 15.844885,8.8968367 -0.96947,-0.6204605 -0.93069,-1.7838238 -1.783824,-1.745045 -1.90016,-1.4348148 c 0,0 -1.2796997,-0.698018 -1.4735937,-0.7755755 -0.193894,-0.077558 -2.598178,-0.1938939 -2.598178,-0.1938939 l -1.396036,0.7367967 -1.357257,1.3184785 -0.891912,1.0082482 -0.930691,2.1716116 0.310231,2.2879479 1.551151,3.2574179 3.141081,5.157576 3.2186378,4.188108 3.3349749,4.653454 2.792072,3.373753 z"
       id="path12-1" />
    <path
       style="fill:#00AAFF;fill-opacity:1"
       d="m 16.054414,8.8803402 0.96947,-0.6204605 0.93069,-1.7838238 1.783824,-1.745045 1.90016,-1.4348148 c 0,0 1.2797,-0.698018 1.473594,-0.7755755 0.193894,-0.077558 2.598178,-0.1938939 2.598178,-0.1938939 l 1.396036,0.7367967 1.357257,1.3184785 0.891912,1.0082482 0.930691,2.1716116 -0.310231,2.2879481 -1.551151,3.2574172 -3.141081,5.157577 -3.218638,4.188108 -3.334975,4.653454 -2.792072,3.373753 z"
       id="path12" />
    <path
       style="fill:#00AAFF;fill-opacity:1"
       d="m 15.899299,30.441341 7.484304,-14.542042 -7.329189,-6.98018 h -0.930691 l 0.232673,20.358858 z"
       id="path13" />
  </g>
</svg>
